<?xml version="1.0" standalone="no"?><!DOCTYPE svg PUBLIC "-//W3C//DTD SVG 1.1//EN" "http://www.w3.org/Graphics/SVG/1.1/DTD/svg11.dtd"><svg class="icon" width="200px" height="200.00px" viewBox="0 0 1024 1024" version="1.1" xmlns="http://www.w3.org/2000/svg"><path  d="M841.271708 292.574478h-73.159631v-36.569141c0-141.174391-114.873642-256.005337-256.090729-256.005337S255.930619 114.830946 255.930619 256.005337v36.569141H182.770988c-80.481998 0-146.340609 65.837263-146.340609 146.297913v438.851044c0 80.46065 65.858611 146.276565 146.340609 146.276565h658.50072c80.481998 0 146.340609-65.815915 146.340609-146.276565V438.872391c0-80.46065-65.858611-146.297913-146.340609-146.297913z m-512.16011-36.569141c0-100.933392 81.933663-182.867054 182.90975-182.867054 100.976088 0 182.90975 81.933663 182.90975 182.867054v36.569141H329.111598v-36.569141z m585.31974 621.718098a73.373111 73.373111 0 0 1-73.15963 73.138282H182.770988a73.373111 73.373111 0 0 1-73.15963-73.138282V438.872391a73.373111 73.373111 0 0 1 73.15963-73.15963h73.159631v109.728772c0 20.472742 16.0964 36.569141 36.590489 36.569141s36.590489-16.0964 36.59049-36.569141v-109.728772h365.8195v109.728772c0 20.472742 16.0964 36.569141 36.59049 36.569141 20.472742 0 36.590489-16.0964 36.590489-36.569141v-109.728772h73.159631a73.373111 73.373111 0 0 1 73.15963 73.15963v438.851044z" /></svg>